<?xml version="1.0" encoding="UTF-8" standalone="no"?>
<!-- Created with Inkscape (http://www.inkscape.org/) -->

<svg
   width="71.999939"
   height="48"
   viewBox="0 0 71.99994 48.000002"
   version="1.1"
   id="svg17788"
   inkscape:version="1.3.2 (091e20ef0f, 2023-11-25)"
   sodipodi:docname="minimize.svg"
   xmlns:inkscape="http://www.inkscape.org/namespaces/inkscape"
   xmlns:sodipodi="http://sodipodi.sourceforge.net/DTD/sodipodi-0.dtd"
   xmlns="http://www.w3.org/2000/svg"
   xmlns:svg="http://www.w3.org/2000/svg">
  <sodipodi:namedview
     id="namedview17790"
     pagecolor="#d1d1d1"
     bordercolor="#6b6b6b"
     borderopacity="1"
     inkscape:showpageshadow="0"
     inkscape:pageopacity="0"
     inkscape:pagecheckerboard="1"
     inkscape:deskcolor="#d1d1d1"
     inkscape:document-units="px"
     showgrid="true"
     shape-rendering="crispEdges"
     inkscape:zoom="5.013468"
     inkscape:cx="0.49865682"
     inkscape:cy="51.261921"
     inkscape:current-layer="layer1"
     showguides="true">
    <inkscape:grid
       type="xygrid"
       id="grid862"
       originx="980.00002"
       originy="525.00004"
       spacingy="1"
       spacingx="1"
       units="px"
       visible="true" />
  </sodipodi:namedview>
  <defs
     id="defs17785" />
  <g
     inkscape:label="Layer 1"
     inkscape:groupmode="layer"
     id="layer1"
     transform="translate(980,525)">
    <g
       id="inactive-center"
       transform="translate(0,24)">
      <rect
         style="fill:none;stroke-width:1;stroke-linecap:square"
         id="rect1999"
         width="24"
         height="24"
         x="-980"
         y="-525" />
      <circle
         style="opacity:0.25;fill:#ffffff;fill-opacity:1;stroke-width:0.999999;stroke-linecap:square"
         id="circle1971"
         cx="-968"
         cy="-513"
         r="9" />
      <rect
         style="opacity:1;fill:#bebacd;fill-opacity:1;stroke:none;stroke-width:1.41419;stroke-linecap:square;stroke-opacity:0.300803"
         id="rect1975"
         width="5.999939"
         height="1.999992"
         x="-970.99994"
         y="-510.99994" />
    </g>
    <g
       id="g1"
       transform="translate(24,24)">
      <rect
         style="fill:none;stroke-width:1;stroke-linecap:square"
         id="rect2091"
         width="24"
         height="24"
         x="-980"
         y="-525" />
      <circle
         style="opacity:0.37;fill:#ffffff;fill-opacity:1;stroke-width:0.999999;stroke-linecap:square"
         id="circle2093"
         cx="-968"
         cy="-513"
         r="9" />
      <rect
         style="opacity:1;fill:#c1bdcf;fill-opacity:0.89019608;stroke:none;stroke-width:1.4142;stroke-linecap:square;stroke-opacity:0.300803"
         id="rect2097"
         width="6.0000105"
         height="1.999992"
         x="-971"
         y="-510.99994" />
    </g>
    <g
       id="pressed-center"
       transform="translate(47.999939)">
      <rect
         style="fill:none;stroke-width:1;stroke-linecap:square"
         id="rect3059"
         width="24"
         height="24"
         x="-980"
         y="-525" />
      <circle
         style="opacity:0.2;fill:#000000;fill-opacity:1;stroke-width:0.999999;stroke-linecap:square"
         id="circle3061"
         cx="-968"
         cy="-513"
         r="9" />
      <rect
         style="opacity:1;fill:#9a9a9a;fill-opacity:1;stroke:none;stroke-width:1.41419;stroke-linecap:square;stroke-opacity:0.300803"
         id="rect3065"
         width="7.9999866"
         height="1.9999911"
         x="-971.99988"
         y="-510.99994" />
    </g>
    <g
       id="pressed-inactive-center"
       transform="translate(47.999939,24)">
      <rect
         style="fill:none;stroke-width:1;stroke-linecap:square"
         id="rect3251"
         width="24"
         height="24"
         x="-980"
         y="-525" />
      <circle
         style="opacity:0.2;fill:#000000;fill-opacity:1;stroke-width:0.999999;stroke-linecap:square"
         id="circle3253"
         cx="-968"
         cy="-513"
         r="9" />
      <rect
         style="opacity:1;fill:#999999;fill-opacity:1;stroke:none;stroke-width:1.41419;stroke-linecap:square;stroke-opacity:0.300803"
         id="rect3257"
         width="7.9999866"
         height="1.999992"
         x="-971.99988"
         y="-510.99994" />
    </g>
    <g
       id="active-center">
      <rect
         style="fill:none;stroke-width:1;stroke-linecap:square"
         id="rect785"
         width="24"
         height="24"
         x="-980"
         y="-525" />
      <circle
         style="opacity:0.33;fill:#ffffff;fill-opacity:1;stroke-width:0.999999;stroke-linecap:square"
         id="path970"
         cx="-968"
         cy="-513"
         r="9" />
      <path
         id="circle1"
         style="opacity:0.15;fill:#ffffff;fill-opacity:1;stroke-width:0.999999;stroke-linecap:square"
         d="m -968,-521.99994 a 9,9 0 0 0 -9,9 9,9 0 0 0 3.16211,6.8457 9,9 0 0 1 -2.16211,-5.8457 9,9 0 0 1 9,-9 9,9 0 0 1 5.8418,2.1582 9,9 0 0 0 -6.8418,-3.1582 z" />
      <rect
         style="opacity:0.15;fill:#000000;fill-opacity:1;stroke:none;stroke-width:1.41419;stroke-linecap:square;stroke-opacity:0.300803"
         id="rect2"
         width="7.999938"
         height="1.9999911"
         x="-970.99988"
         y="-509.99994" />
      <path
         id="path2"
         style="opacity:0.12;fill:#010101;fill-opacity:1;stroke-width:0.999999;stroke-linecap:square"
         d="m -967,-502.99994 a 9,9 0 0 0 9,-9 9,9 0 0 0 -3.16211,-6.8457 9,9 0 0 1 2.16211,5.8457 9,9 0 0 1 -9,9 9,9 0 0 1 -5.8418,-2.1582 9,9 0 0 0 6.8418,3.1582 z" />
      <rect
         style="fill:#ffffff;fill-opacity:1;stroke:none;stroke-width:1.41419;stroke-linecap:square;stroke-opacity:0.300803"
         id="rect1806"
         width="7.999939"
         height="1.9999911"
         x="-971.99994"
         y="-510.99994" />
    </g>
    <g
       id="hover-center"
       transform="translate(23.999999)">
      <rect
         style="fill:none;stroke-width:1;stroke-linecap:square"
         id="rect1"
         width="24"
         height="24"
         x="-980"
         y="-525" />
      <circle
         style="opacity:0.45;fill:#ffffff;fill-opacity:1;stroke-width:0.999999;stroke-linecap:square"
         id="circle2"
         cx="-968"
         cy="-513"
         r="9" />
      <path
         id="path3"
         style="opacity:0.2;fill:#ffffff;fill-opacity:1;stroke-width:0.999999;stroke-linecap:square"
         d="m -968,-521.99994 a 9,9 0 0 0 -9,9 9,9 0 0 0 3.16211,6.8457 9,9 0 0 1 -2.16211,-5.8457 9,9 0 0 1 9,-9 9,9 0 0 1 5.8418,2.1582 9,9 0 0 0 -6.8418,-3.1582 z" />
      <rect
         style="opacity:0.2;fill:#000000;fill-opacity:1;stroke:none;stroke-width:1.41419;stroke-linecap:square;stroke-opacity:0.300803"
         id="rect3"
         width="7.999938"
         height="1.9999911"
         x="-970.99988"
         y="-509.99994" />
      <path
         id="path4"
         style="opacity:0.15;fill:#010101;fill-opacity:1;stroke-width:0.999999;stroke-linecap:square"
         d="m -967,-502.99994 a 9,9 0 0 0 9,-9 9,9 0 0 0 -3.16211,-6.8457 9,9 0 0 1 2.16211,5.8457 9,9 0 0 1 -9,9 9,9 0 0 1 -5.8418,-2.1582 9,9 0 0 0 6.8418,3.1582 z" />
      <rect
         style="fill:#ffffff;fill-opacity:1;stroke:none;stroke-width:1.41419;stroke-linecap:square;stroke-opacity:0.300803"
         id="rect4"
         width="7.999939"
         height="1.9999911"
         x="-971.99994"
         y="-510.99994" />
    </g>
    <g
       id="hover-inactive-center"
       transform="translate(24,24)">
      <rect
         style="fill:none;stroke-width:1;stroke-linecap:square"
         id="rect5"
         width="24"
         height="24"
         x="-980"
         y="-525" />
      <circle
         style="opacity:0.37;fill:#ffffff;fill-opacity:1;stroke-width:0.999999;stroke-linecap:square"
         id="circle5"
         cx="-968"
         cy="-513"
         r="9" />
      <rect
         style="opacity:1;fill:#bebacd;fill-opacity:1;stroke:none;stroke-width:1.4142;stroke-linecap:square;stroke-opacity:0.300803"
         id="rect6"
         width="6.0000105"
         height="1.999992"
         x="-971"
         y="-510.99994" />
    </g>
  </g>
</svg>
